<svg width="400" height="400" viewBox="0 0 400 400" fill="none" xmlns="http://www.w3.org/2000/svg">
<g filter="url(#filter0_f_832_368)">
<path d="M131.694 306.655L136.381 309.432C156.066 321.114 178.637 327.294 201.654 327.305H201.703C272.388 327.305 329.915 269.791 329.944 199.101C329.957 164.846 316.63 132.633 292.417 108.401C280.542 96.451 266.414 86.9749 250.851 80.5215C235.288 74.0681 218.6 70.7656 201.753 70.8052C131.013 70.8052 73.4842 128.313 73.4591 198.998C73.4242 223.136 80.2213 246.79 93.0645 267.226L96.1157 272.075L83.158 319.38L131.694 306.655ZM46.1113 356.028L68.0025 276.101C54.5017 252.71 47.3989 226.174 47.4073 198.988C47.443 113.94 116.654 44.7493 201.705 44.7493C242.977 44.7702 281.716 60.8316 310.85 89.987C339.985 119.142 356.015 157.896 356 199.112C355.962 284.154 286.74 353.357 201.703 353.357H201.636C175.814 353.346 150.442 346.868 127.905 334.58L46.1113 356.028Z" fill="#B3B3B3"/>
</g>
<path d="M44.528 354.443L66.4192 274.516C52.8951 251.068 45.7913 224.47 45.824 197.402C45.8596 112.354 115.071 43.1638 200.121 43.1638C241.394 43.1848 280.133 59.2462 309.267 88.4016C338.401 117.557 354.431 156.311 354.417 197.526C354.379 282.568 285.157 351.771 200.119 351.771H200.052C174.231 351.761 148.859 345.283 126.322 332.994L44.528 354.443Z" fill="white"/>
<path d="M200.168 69.2201C129.427 69.2201 71.8988 126.728 71.8737 197.413C71.8388 221.55 78.6359 245.205 91.4791 265.641L94.5303 270.492L81.5726 317.797L130.111 305.07L134.798 307.847C154.483 319.529 177.054 325.707 200.071 325.72H200.119C270.805 325.72 328.333 268.206 328.361 197.516C328.414 180.667 325.125 163.976 318.683 148.407C312.242 132.838 302.776 118.702 290.834 106.816C278.958 94.8656 264.83 85.3893 249.267 78.9359C233.704 72.4826 217.015 69.1802 200.168 69.2201V69.2201Z" fill="url(#paint0_linear_832_368)"/>
<path fill-rule="evenodd" clip-rule="evenodd" d="M161.556 132.92C158.667 126.501 155.626 126.371 152.881 126.26L145.491 126.17C142.92 126.17 138.743 127.134 135.211 130.993C131.68 134.851 121.717 144.177 121.717 163.145C121.717 182.113 135.532 200.441 137.457 203.016C139.382 205.592 164.127 245.757 203.315 261.21C235.88 274.052 242.507 271.498 249.578 270.856C256.65 270.215 272.388 261.531 275.599 252.528C278.809 243.525 278.811 235.812 277.849 234.2C276.886 232.587 274.315 231.629 270.457 229.699C266.598 227.77 247.647 218.444 244.113 217.157C240.58 215.869 238.011 215.23 235.438 219.088C232.865 222.947 225.485 231.627 223.235 234.2C220.985 236.773 218.739 237.096 214.88 235.169C211.022 233.241 198.607 229.169 183.878 216.035C172.417 205.816 164.681 193.196 162.429 189.339C160.177 185.483 162.19 183.394 164.123 181.473C165.853 179.745 167.978 176.971 169.909 174.721C171.84 172.471 172.476 170.862 173.759 168.293C175.043 165.724 174.403 163.468 173.438 161.541C172.474 159.614 164.983 140.547 161.556 132.922" fill="white"/>
<defs>
<filter id="filter0_f_832_368" x="39.0493" y="37.6873" width="324.013" height="325.403" filterUnits="userSpaceOnUse" color-interpolation-filters="sRGB">
<feFlood flood-opacity="0" result="BackgroundImageFix"/>
<feBlend mode="normal" in="SourceGraphic" in2="BackgroundImageFix" result="shape"/>
<feGaussianBlur stdDeviation="3.531" result="effect1_foregroundBlur_832_368"/>
</filter>
<linearGradient id="paint0_linear_832_368" x1="197.506" y1="84.6125" x2="198.807" y2="303.808" gradientUnits="userSpaceOnUse">
<stop stop-color="#57D163"/>
<stop offset="1" stop-color="#23B33A"/>
</linearGradient>
</defs>
</svg>
